<?xml version="1.0" encoding="UTF-8" standalone="no"?>
<!-- Created with Inkscape (http://www.inkscape.org/) -->

<svg
   version="1.1"
   id="svg1"
   width="737.33331"
   height="160"
   viewBox="0 0 737.33331 160"
   sodipodi:docname="logo_nakopni.svg"
   inkscape:version="1.4.3 (0d15f75, 2025-12-25)"
   xmlns:inkscape="http://www.inkscape.org/namespaces/inkscape"
   xmlns:sodipodi="http://sodipodi.sourceforge.net/DTD/sodipodi-0.dtd"
   xmlns="http://www.w3.org/2000/svg"
   xmlns:svg="http://www.w3.org/2000/svg">
  <defs
     id="defs1" />
  <sodipodi:namedview
     id="namedview1"
     pagecolor="#ffffff"
     bordercolor="#000000"
     borderopacity="0.25"
     inkscape:showpageshadow="2"
     inkscape:pageopacity="0.0"
     inkscape:pagecheckerboard="0"
     inkscape:deskcolor="#d1d1d1"
     showgrid="false"
     inkscape:zoom="2.4005426"
     inkscape:cx="368.66666"
     inkscape:cy="80.190205"
     inkscape:window-width="1920"
     inkscape:window-height="1009"
     inkscape:window-x="-8"
     inkscape:window-y="-8"
     inkscape:window-maximized="1"
     inkscape:current-layer="g1">
    <inkscape:page
       x="0"
       y="0"
       inkscape:label="1"
       id="page1"
       width="737.33331"
       height="160"
       margin="0"
       bleed="0" />
  </sodipodi:namedview>
  <g
     id="g1"
     inkscape:groupmode="layer"
     inkscape:label="1">
    <path
       id="path1"
       d="m 503.3557,48.8268 h -14.5684 v 4.466 c 0,2.0865 -0.191,3.4228 -0.5598,3.9951 -0.3691,0.5726 -0.9924,0.8527 -1.8703,0.8527 -0.9417,0 -1.6541,-0.3819 -2.1376,-1.158 -0.4836,-0.7634 -0.7254,-1.9341 -0.7254,-3.4991 0,-2.01 0.2673,-3.537 0.8144,-4.555 0.5218,-1.0176 2.0103,-2.2391 4.4404,-3.6898 6.9855,-4.1477 11.3749,-7.545 13.1945,-10.2042 1.8195,-2.6592 2.7229,-6.9471 2.7229,-12.8636 0,-4.3004 -0.5091,-7.4687 -1.5142,-9.5046 -1.0052,-2.0355 -2.9518,-3.7533 -5.8272,-5.1273 -2.8882,-1.3742 -6.2348,-2.0741 -10.0644,-2.0741 -4.199,0 -7.7868,0.8017 -10.7516,2.3922 -2.9772,1.5905 -4.924,3.6133 -5.8399,6.0689 -0.9162,2.4685 -1.3742,5.9548 -1.3742,10.4843 v 3.9444 h 14.5683 v -7.3418 c 0,-2.2646 0.2039,-3.715 0.6109,-4.3639 0.4198,-0.6364 1.1449,-0.9672 2.1884,-0.9672 1.0434,0 1.8195,0.4074 2.3283,1.2342 0.5089,0.8144 0.7634,2.0359 0.7634,3.6519 0,3.5498 -0.4836,5.8782 -1.4502,6.9724 -0.9927,1.0942 -3.4483,2.9137 -7.3417,5.4711 -3.9062,2.5957 -6.4891,4.466 -7.7613,5.6364 -1.2597,1.1708 -2.3156,2.7865 -3.1428,4.8479 -0.8396,2.0613 -1.2469,4.695 -1.2469,7.9012 0,4.6188 0.5853,8.0031 1.7688,10.1407 1.1704,2.1376 3.079,3.8044 5.7127,5.0131 2.6339,1.1962 5.8147,1.8068 9.5425,1.8068 4.0844,0 7.558,-0.6616 10.4207,-1.9721 2.8755,-1.3232 4.7713,-2.9775 5.713,-4.9875 0.9286,-1.9979 1.3867,-5.3949 1.3867,-10.1917 z m 43.6292,18.2585 -8.983,-27.2412 9.8353,-33.1067 h -16.2099 l -6.336,25.867 V 6.7374 h -15.7011 v 60.3479 h 15.7011 V 43.6357 l 6.9596,23.4496"
       style="fill:#a7a5a6;fill-opacity:1;fill-rule:evenodd;stroke:none"
       transform="matrix(1.3333333,0,0,-1.3333333,0,160)" />
    <path
       id="path2"
       d="M 70.5416,111.4027 V 7.6524 H 46.8952 L 32.8521,54.8135 V 7.6524 H 10.2994 V 111.4027 H 32.8521 L 47.9891,64.679 v 46.7237"
       style="fill:#7b7979;fill-opacity:1;fill-rule:evenodd;stroke:none"
       transform="matrix(1.3333333,0,0,-1.3333333,0,160)" />
    <path
       id="path3"
       d="M 127.9619,111.4027 143.4053,7.6524 H 115.778 l -1.3346,18.6588 h -9.6902 L 103.1564,7.6524 H 75.2227 L 88.9379,111.4027 Z M 113.6778,44.6856 c -1.3779,11.7468 -2.7343,26.2713 -4.1122,43.5303 -2.7343,-19.8403 -4.4405,-34.3429 -5.1185,-43.5303"
       style="fill:#7b7979;fill-opacity:1;fill-rule:evenodd;stroke:none"
       transform="matrix(1.3333333,0,0,-1.3333333,0,160)" />
    <path
       id="path4"
       d="M 212.3107,111.4027 196.8673,64.5695 213.7762,7.6524 H 185.9083 L 175.015,52.1232 V 7.6524 H 148.0218 V 111.4027 H 175.015 V 71.0881 l 11.9653,40.3146"
       style="fill:#7b7979;fill-opacity:1;fill-rule:evenodd;stroke:none"
       transform="matrix(1.3333333,0,0,-1.3333333,0,160)" />
    <path
       id="path5"
       d="m 277.7374,50.6574 c 0,-10.4341 -0.2406,-17.8056 -0.7219,-22.1369 -0.5032,-4.3529 -2.0342,-8.3123 -4.6154,-11.8996 -2.5812,-3.5875 -6.0812,-6.3436 -10.478,-8.2686 -4.3965,-1.9247 -9.5372,-2.8874 -15.3777,-2.8874 -5.5559,0 -10.5434,0.9187 -14.9621,2.7343 -4.4404,1.8156 -7.984,4.5281 -10.6747,8.1593 -2.6903,3.6311 -4.2874,7.5903 -4.8124,11.8559 -0.5031,4.2874 -0.7656,11.7683 -0.7656,22.443 v 17.7403 c 0,10.4341 0.2407,17.8056 0.7438,22.1587 0.4813,4.3311 2.0126,8.2902 4.6157,11.8778 2.5809,3.5875 6.059,6.3436 10.4777,8.2684 4.3968,1.925 9.5153,2.8876 15.3776,2.8876 5.5562,0 10.5435,-0.9187 14.9622,-2.7343 4.4186,-1.8156 7.984,-4.5281 10.6747,-8.1592 2.6906,-3.6312 4.2874,-7.5904 4.7905,-11.8559 0.525,-4.2874 0.7656,-11.7465 0.7656,-22.4431 z m -26.971,34.0804 c 0,4.8342 -0.2625,7.9185 -0.8096,9.2746 -0.525,1.3346 -1.6186,2.0126 -3.2811,2.0126 -1.4219,0 -2.4937,-0.5468 -3.2375,-1.6407 -0.7656,-1.0717 -1.1372,-4.2874 -1.1372,-9.6465 v -48.43 c 0,-6.0372 0.2625,-9.756 0.7435,-11.156 0.4813,-1.4218 1.6407,-2.1217 3.4345,-2.1217 1.8374,0 2.9967,0.8093 3.5217,2.4281 0.5032,1.6404 0.7657,5.4905 0.7657,11.6153"
       style="fill:#7b7979;fill-opacity:1;fill-rule:evenodd;stroke:none"
       transform="matrix(1.3333333,0,0,-1.3333333,0,160)" />
    <path
       id="path6"
       d="m 287.8004,111.4027 h 27.1681 c 7.3497,0 13.0153,-0.5689 16.9526,-1.728 3.9595,-1.1594 6.9341,-2.8219 8.9031,-4.9876 1.9905,-2.1874 3.3466,-4.8342 4.0467,-7.9185 0.6999,-3.106 1.05,-7.8965 1.05,-14.3932 v -9.034 c 0,-6.628 -0.6781,-11.4625 -2.0344,-14.4811 -1.378,-3.0405 -3.8937,-5.3592 -7.5467,-6.9996 -3.653,-1.6189 -8.4218,-2.4282 -14.3059,-2.4282 h -7.2403 V 7.6524 H 287.8004 Z M 314.7936,93.6626 V 67.2602 c 0.7657,-0.0439 1.4219,-0.0658 1.9687,-0.0658 2.4936,0 4.1998,0.6126 5.1622,1.8156 0.9626,1.2251 1.4439,3.7624 1.4439,7.5906 v 8.5309 c 0,3.5436 -0.547,5.8623 -1.6625,6.9123 -1.1157,1.0718 -3.4123,1.6188 -6.9123,1.6188"
       style="fill:#7b7979;fill-opacity:1;fill-rule:evenodd;stroke:none"
       transform="matrix(1.3333333,0,0,-1.3333333,0,160)" />
    <path
       id="path7"
       d="M 413.9283,111.4027 V 7.6524 H 390.282 L 376.2388,54.8135 V 7.6524 h -22.5527 v 103.7503 h 22.5527 l 15.137,-46.7237 v 46.7237"
       style="fill:#7b7979;fill-opacity:1;fill-rule:evenodd;stroke:none"
       transform="matrix(1.3333333,0,0,-1.3333333,0,160)" />
    <path
       id="path8"
       d="M 451.7501,111.4027 V 51.2419 h -26.9932 v 60.1608"
       style="fill:#7b7979;fill-opacity:1;fill-rule:evenodd;stroke:none"
       transform="matrix(1.3333333,0,0,-1.3333333,0,160)" />
    <path
       id="path9"
       d="M 424.7563,36.8739 V 7.6754 h 26.9947 v 29.1985"
       style="fill:#f47216;fill-opacity:1;fill-rule:evenodd;stroke:none"
       transform="matrix(1.3333333,0,0,-1.3333333,0,160)" />
  </g>
</svg>
