<?xml version="1.0" encoding="UTF-8" standalone="no"?>
<!-- Created with Inkscape (http://www.inkscape.org/) -->

<svg
   version="1.1"
   id="svg1"
   width="717.35547"
   height="148.6628"
   viewBox="0 0 717.35548 148.66279"
   sodipodi:docname="web (1).pdf"
   xmlns:inkscape="http://www.inkscape.org/namespaces/inkscape"
   xmlns:sodipodi="http://sodipodi.sourceforge.net/DTD/sodipodi-0.dtd"
   xmlns="http://www.w3.org/2000/svg"
   xmlns:svg="http://www.w3.org/2000/svg">
  <defs
     id="defs1" />
  <sodipodi:namedview
     id="namedview1"
     pagecolor="#ffffff"
     bordercolor="#000000"
     borderopacity="0.25"
     inkscape:showpageshadow="2"
     inkscape:pageopacity="0.0"
     inkscape:pagecheckerboard="0"
     inkscape:deskcolor="#d1d1d1">
    <inkscape:page
       x="0"
       y="0"
       width="717.35547"
       height="148.6628"
       id="page2"
       margin="0"
       bleed="0" />
  </sodipodi:namedview>
  <g
     id="g1"
     inkscape:groupmode="layer"
     inkscape:label="1"
     transform="translate(-164.53492,-115.26106)">
    <path
       id="path29"
       d="m 173.8001,2852.6397 v -86.7977 h -19.7827 l -11.7485,39.4552 v -39.4552 h -18.8677 v 86.7977 h 18.8677 l 12.6635,-39.0892 v 39.0892"
       style="fill:#bdbcbc;fill-opacity:1;fill-rule:evenodd;stroke:none"
       transform="matrix(1.3333333,0,0,-1.3333333,0,3934.6667)"
       inkscape:export-filename="logoN.svg"
       inkscape:export-xdpi="96"
       inkscape:export-ydpi="96" />
    <path
       id="path30"
       d="m 228.0163,2864.5543 23.5557,-106.5492 -28.6711,-2.005 -2.7391,19.2671 -10.0562,-0.7033 -0.303,-19.4796 -28.9891,-2.0271 6.7045,108.6653 z m -9.9822,-70.274 c -2.2827,12.0903 -4.744,27.0652 -7.4267,44.8764 -1.3978,-20.7881 -2.1158,-35.9626 -2.1529,-45.5462"
       style="fill:#bdbcbc;fill-opacity:1;fill-rule:evenodd;stroke:none"
       transform="matrix(1.3333333,0,0,-1.3333333,0,3934.6667)" />
    <path
       id="path31"
       d="m 314.2057,2852.6397 -12.92,-39.1807 14.146,-47.617 h -23.3144 l -9.1134,37.2042 v -37.2042 h -22.5825 v 86.7977 h 22.5825 v -33.7272 l 10.0103,33.7272"
       style="fill:#393536;fill-opacity:1;fill-rule:evenodd;stroke:none"
       transform="matrix(1.3333333,0,0,-1.3333333,0,3934.6667)" />
    <path
       id="path32"
       d="m 368.9419,2801.8202 c 0,-8.7293 -0.2013,-14.8964 -0.6038,-18.5199 -0.4209,-3.6417 -1.7019,-6.9539 -3.8613,-9.9553 -2.1595,-3.0013 -5.0874,-5.307 -8.7659,-6.9173 -3.6782,-1.6104 -7.9787,-2.4157 -12.865,-2.4157 -4.6483,0 -8.8206,0.7687 -12.5173,2.2875 -3.7148,1.5188 -6.6795,3.7882 -8.9305,6.8259 -2.2507,3.0378 -3.5867,6.3501 -4.0261,9.9187 -0.4206,3.5869 -0.6403,9.8455 -0.6403,18.7761 v 14.8413 c 0,8.7291 0.2012,14.8964 0.6222,18.5381 0.4025,3.6235 1.6835,6.9358 3.8613,9.9368 2.1595,3.0013 5.0692,5.307 8.7659,6.9177 3.6782,1.6103 7.9605,2.4154 12.8648,2.4154 4.6482,0 8.8208,-0.7685 12.5175,-2.2873 3.6963,-1.5191 6.6795,-3.7882 8.9302,-6.8261 2.251,-3.0379 3.587,-6.3502 4.0079,-9.9187 0.4391,-3.5867 0.6404,-9.8272 0.6404,-18.7759 z m -22.5641,28.5114 c 0,4.0445 -0.2194,6.6249 -0.6769,7.7593 -0.4394,1.1163 -1.3544,1.6838 -2.7451,1.6838 -1.1897,0 -2.0863,-0.4575 -2.7085,-1.3726 -0.6406,-0.8968 -0.9516,-3.5869 -0.9516,-8.0705 v -40.5164 c 0,-5.0508 0.2197,-8.1618 0.6223,-9.3331 0.4025,-1.1894 1.3725,-1.775 2.8731,-1.775 1.5373,0 2.507,0.6772 2.9464,2.0313 0.4209,1.3725 0.6403,4.5932 0.6403,9.7174"
       style="fill:#393536;fill-opacity:1;fill-rule:evenodd;stroke:none"
       transform="matrix(1.3333333,0,0,-1.3333333,0,3934.6667)" />
    <path
       id="path33"
       d="m 377.3602,2852.6397 h 22.7291 c 6.1486,0 10.8884,-0.4759 14.1825,-1.4459 3.3123,-0.9698 5.8011,-2.3607 7.4481,-4.1724 1.6653,-1.83 2.8,-4.0444 3.3854,-6.6245 0.5856,-2.5988 0.8784,-6.6064 0.8784,-12.0416 v -7.558 c 0,-5.5449 -0.5672,-9.5893 -1.7019,-12.1147 -1.1528,-2.5435 -3.2573,-4.4836 -6.3133,-5.8561 -3.0563,-1.3541 -7.0458,-2.0313 -11.9684,-2.0313 h -6.0574 v -34.9532 h -22.5825 z m 22.5825,-14.8416 V 2815.71 c 0.6406,-0.037 1.1894,-0.055 1.6469,-0.055 2.0863,0 3.5139,0.5125 4.3189,1.519 0.8053,1.0248 1.2078,3.1476 1.2078,6.3499 v 7.1371 c 0,2.9648 -0.4575,4.9045 -1.3906,5.783 -0.9335,0.8966 -2.8551,1.3541 -5.783,1.3541"
       style="fill:#393536;fill-opacity:1;fill-rule:evenodd;stroke:none"
       transform="matrix(1.3333333,0,0,-1.3333333,0,3934.6667)" />
    <path
       id="path34"
       d="m 482.8793,2852.6397 v -86.7977 h -19.7827 l -11.7484,39.4552 v -39.4552 h -18.8677 v 86.7977 h 18.8677 l 12.6635,-39.0892 v 39.0892"
       style="fill:#393536;fill-opacity:1;fill-rule:evenodd;stroke:none"
       transform="matrix(1.3333333,0,0,-1.3333333,0,3934.6667)" />
    <path
       id="path35"
       d="M 514.5205,2852.6397 V 2765.842 H 491.938 v 86.7977"
       style="fill:#393536;fill-opacity:1;fill-rule:evenodd;stroke:none"
       transform="matrix(1.3333333,0,0,-1.3333333,0,3934.6667)" />
    <path
       id="path36"
       d="m 604.8499,2826.379 h -20.9537 v 6.4233 c 0,3.001 -0.2747,4.9226 -0.8053,5.7461 -0.5307,0.8235 -1.4273,1.2263 -2.6901,1.2263 -1.3541,0 -2.3791,-0.5491 -3.0745,-1.6654 -0.6953,-1.0981 -1.0431,-2.7816 -1.0431,-5.0326 0,-2.8913 0.3844,-5.0873 1.1713,-6.5514 0.7503,-1.4641 2.8913,-3.2208 6.3867,-5.3071 10.0468,-5.9658 16.3604,-10.8518 18.9774,-14.6766 2.6169,-3.8248 3.916,-9.9919 3.916,-18.5015 0,-6.1855 -0.7319,-10.7421 -2.1775,-13.6703 -1.4457,-2.9279 -4.2458,-5.3983 -8.3815,-7.3749 -4.1542,-1.9763 -8.9671,-2.9829 -14.4754,-2.9829 -6.0392,0 -11.1997,1.1528 -15.4636,3.4404 -4.2823,2.2875 -7.0823,5.1973 -8.3999,8.7293 -1.3175,3.5501 -1.9763,8.5643 -1.9763,15.0792 v 5.6729 h 20.9537 v -10.559 c 0,-3.2573 0.2928,-5.3436 0.8782,-6.2771 0.604,-0.915 1.6472,-1.3906 3.1479,-1.3906 1.5003,0 2.6166,0.5856 3.3488,1.775 0.7319,1.1713 1.0979,2.9279 1.0979,5.252 0,5.1058 -0.6954,8.4549 -2.086,10.0287 -1.4276,1.5738 -4.9595,4.1908 -10.5594,7.869 -5.618,3.7332 -9.3331,6.4233 -11.1631,8.1071 -1.8116,1.6835 -3.3304,4.0076 -4.5201,6.9721 -1.2079,2.9647 -1.7935,6.753 -1.7935,11.3647 0,6.6427 0.8419,11.5106 2.5438,14.5851 1.6838,3.0744 4.4286,5.4717 8.2168,7.2102 3.7882,1.7203 8.363,2.5985 13.7251,2.5985 5.8745,0 10.8703,-0.9516 14.9879,-2.8364 4.1357,-1.9031 6.8624,-4.2823 8.2167,-7.1736 1.336,-2.8732 1.9948,-7.7593 1.9948,-14.6585"
       style="fill:#bdbcbc;fill-opacity:1;fill-rule:evenodd;stroke:none"
       transform="matrix(1.3333333,0,0,-1.3333333,0,3934.6667)" />
    <path
       id="path37"
       d="m 658.8009,2836.993 -8.8022,-28.3651 11.4191,-42.7859 h -20.8437 l -6.7527,30.9821 v -30.9821 h -21.6675 v 86.7977 h 21.6675 v -36.4541 l 6.7527,20.8074"
       style="fill:#bdbcbc;fill-opacity:1;fill-rule:evenodd;stroke:none"
       transform="matrix(1.3333333,0,0,-1.3333333,0,3934.6667)" />
    <path
       id="path39"
       d="m 537.2342,2761.9946 c 6.6603,0 12.0926,5.2676 12.0926,11.7263 0,6.4588 -5.4323,11.7267 -12.0926,11.7267 -6.6608,0 -12.0931,-5.2679 -12.0931,-11.7267 0,-6.4587 5.4323,-11.7263 12.0931,-11.7263"
       style="fill:#f47216;fill-opacity:1;fill-rule:evenodd;stroke:none"
       transform="matrix(1.3333333,0,0,-1.3333333,0,3934.6667)" />
  </g>
</svg>
